<svg width="34" height="34" viewBox="0 0 34 34" fill="none" xmlns="http://www.w3.org/2000/svg">
<path d="M29.7501 11.6875V22.3125C29.7501 22.8761 29.5262 23.4166 29.1277 23.8151C28.7292 24.2136 28.1887 24.4375 27.6251 24.4375H17.0001V29.75C17.0003 29.9602 16.938 30.1658 16.8213 30.3407C16.7046 30.5156 16.5386 30.6519 16.3443 30.7324C16.1501 30.8129 15.9363 30.8339 15.7301 30.7929C15.5239 30.7518 15.3345 30.6505 15.1859 30.5017L2.43588 17.7517C2.3371 17.653 2.25873 17.5358 2.20526 17.4069C2.15179 17.2779 2.12427 17.1396 2.12427 17C2.12427 16.8604 2.15179 16.7221 2.20526 16.5931C2.25873 16.4641 2.3371 16.3469 2.43588 16.2483L15.1859 3.49826C15.3345 3.3495 15.5239 3.24817 15.7301 3.20711C15.9363 3.16604 16.1501 3.18708 16.3443 3.26757C16.5386 3.34806 16.7046 3.48437 16.8213 3.65925C16.938 3.83413 17.0003 4.03972 17.0001 4.24998V9.56248H27.6251C28.1887 9.56248 28.7292 9.78637 29.1277 10.1849C29.5262 10.5834 29.7501 11.1239 29.7501 11.6875Z" fill="#FFEDDF"/>
</svg>
