<svg width="28" height="28" viewBox="0 0 28 28" fill="none" xmlns="http://www.w3.org/2000/svg">
<path d="M27.8133 8.68748V19.3125C27.8133 19.8761 27.5895 20.4166 27.1909 20.8151C26.7924 21.2136 26.2519 21.4375 25.6883 21.4375H15.0633V26.75C15.0635 26.9602 15.0013 27.1658 14.8845 27.3407C14.7678 27.5156 14.6018 27.6519 14.4076 27.7324C14.2133 27.8129 13.9995 27.8339 13.7933 27.7929C13.5871 27.7518 13.3977 27.6505 13.2491 27.5017L0.499117 14.7517C0.40033 14.653 0.321961 14.5358 0.268491 14.4069C0.215021 14.2779 0.1875 14.1396 0.1875 14C0.1875 13.8604 0.215021 13.7221 0.268491 13.5931C0.321961 13.4641 0.40033 13.3469 0.499117 13.2483L13.2491 0.498263C13.3977 0.349501 13.5871 0.248173 13.7933 0.207107C13.9995 0.166041 14.2133 0.187084 14.4076 0.267571C14.6018 0.348058 14.7678 0.48437 14.8845 0.659251C15.0013 0.834132 15.0635 1.03972 15.0633 1.24998V6.56248H25.6883C26.2519 6.56248 26.7924 6.78637 27.1909 7.18488C27.5895 7.5834 27.8133 8.1239 27.8133 8.68748Z" fill="#252525"/>
</svg>
