<svg width="72" height="73" viewBox="0 0 72 73" fill="none" xmlns="http://www.w3.org/2000/svg">
<path d="M59.9079 29.1316C59.1299 29.1316 58.4777 28.8646 57.9514 28.3306C57.4251 27.7966 57.1619 27.1349 57.1619 26.3455C57.1619 25.5561 57.4251 24.8945 57.9514 24.3605C58.4777 23.8265 59.1299 23.5595 59.9079 23.5595H62.6539C63.4319 23.5595 64.0841 23.8265 64.6104 24.3605C65.1367 24.8945 65.3999 25.5561 65.3999 26.3455C65.3999 27.1349 65.1367 27.7966 64.6104 28.3306C64.0841 28.8646 63.4319 29.1316 62.6539 29.1316H59.9079ZM44.8049 13.8082C44.0269 13.8082 43.3747 13.5412 42.8484 13.0072C42.3221 12.4732 42.0589 11.8115 42.0589 11.0222V8.23608C42.0589 7.4467 42.3221 6.785 42.8484 6.25101C43.3747 5.71701 44.0269 5.45001 44.8049 5.45001C45.583 5.45001 46.2351 5.71701 46.7615 6.25101C47.2878 6.785 47.5509 7.4467 47.5509 8.23608V11.0222C47.5509 11.8115 47.2878 12.4732 46.7615 13.0072C46.2351 13.5412 45.583 13.8082 44.8049 13.8082ZM53.5235 17.4998C53.02 16.989 52.7683 16.3389 52.7683 15.5495C52.7683 14.7601 53.02 14.11 53.5235 13.5993L55.5143 11.5794C56.0178 11.0686 56.6585 10.8132 57.4365 10.8132C58.2146 10.8132 58.8553 11.0686 59.3587 11.5794C59.8621 12.0901 60.1139 12.7402 60.1139 13.5296C60.1139 14.319 59.8621 14.9691 59.3587 15.4799L57.3679 17.4998C56.8644 18.0105 56.2237 18.2659 55.4457 18.2659C54.6676 18.2659 54.0269 18.0105 53.5235 17.4998ZM48.9239 25.649C48.6951 25.649 48.4663 25.6258 48.2374 25.5794C48.0086 25.5329 47.7798 25.4401 47.5509 25.3008L45.1482 23.9077C44.5075 23.5362 43.8095 23.455 43.0544 23.6639C42.2992 23.8729 41.7386 24.3024 41.3724 24.9525L41.0292 25.5097L43.7752 27.1117C44.7363 27.6689 45.3656 28.5047 45.6631 29.6192C45.9605 30.7336 45.8347 31.7784 45.2855 32.7535L43.4319 36.0968C44.4846 37.7684 45.274 39.5445 45.8004 41.4251C46.3267 43.3057 46.5898 45.2444 46.5898 47.2411C46.5898 53.0454 44.5875 57.979 40.583 62.042C36.5784 66.1051 31.7157 68.1366 25.9949 68.1366C20.274 68.1366 15.4113 66.0818 11.4068 61.9724C7.40219 57.8629 5.3999 52.9061 5.3999 47.1018C5.3999 41.2974 7.37931 36.387 11.3381 32.3704C15.2969 28.3538 20.1367 26.3455 25.8576 26.3455H26.75L28.6036 23.0719C29.1528 22.0503 29.9766 21.3887 31.075 21.0868C32.1734 20.785 33.226 20.9359 34.2329 21.5396L36.2924 22.7236L36.6356 22.1664C37.6882 20.1697 39.3358 18.8696 41.5784 18.2659C43.821 17.6623 45.9262 17.9409 47.8942 19.1018L50.2283 20.4251C50.6402 20.6573 50.9834 20.994 51.258 21.4351C51.5326 21.8762 51.6699 22.3522 51.6699 22.8629C51.6699 23.6523 51.4068 24.314 50.8805 24.848C50.3541 25.382 49.702 25.649 48.9239 25.649Z" fill="#C33432"/>
</svg>
