<svg width="96" height="96" viewBox="0 0 96 96" fill="none" xmlns="http://www.w3.org/2000/svg">
<path d="M84.0001 35.2C82.8668 35.2 81.9168 34.8166 81.1501 34.05C80.3834 33.2833 80.0001 32.3333 80.0001 31.2C80.0001 30.0666 80.3834 29.1166 81.1501 28.35C81.9168 27.5833 82.8668 27.2 84.0001 27.2H88.0001C89.1334 27.2 90.0834 27.5833 90.8501 28.35C91.6168 29.1166 92.0001 30.0666 92.0001 31.2C92.0001 32.3333 91.6168 33.2833 90.8501 34.05C90.0834 34.8166 89.1334 35.2 88.0001 35.2H84.0001ZM62.0001 13.2C60.8668 13.2 59.9168 12.8166 59.1501 12.05C58.3834 11.2833 58.0001 10.3333 58.0001 9.19995V5.19995C58.0001 4.06662 58.3834 3.11662 59.1501 2.34995C59.9168 1.58328 60.8668 1.19995 62.0001 1.19995C63.1334 1.19995 64.0834 1.58328 64.8501 2.34995C65.6168 3.11662 66.0001 4.06662 66.0001 5.19995V9.19995C66.0001 10.3333 65.6168 11.2833 64.8501 12.05C64.0834 12.8166 63.1334 13.2 62.0001 13.2ZM74.7001 18.5C73.9668 17.7666 73.6001 16.8333 73.6001 15.7C73.6001 14.5666 73.9668 13.6333 74.7001 12.9L77.6001 9.99995C78.3334 9.26662 79.2668 8.89995 80.4001 8.89995C81.5334 8.89995 82.4668 9.26662 83.2001 9.99995C83.9334 10.7333 84.3001 11.6666 84.3001 12.8C84.3001 13.9333 83.9334 14.8666 83.2001 15.6L80.3001 18.5C79.5668 19.2333 78.6334 19.6 77.5001 19.6C76.3668 19.6 75.4334 19.2333 74.7001 18.5ZM68.0001 30.2C67.6668 30.2 67.3334 30.1666 67.0001 30.1C66.6668 30.0333 66.3334 29.9 66.0001 29.7L62.5001 27.7C61.5668 27.1666 60.5501 27.05 59.4501 27.35C58.3501 27.65 57.5334 28.2666 57.0001 29.2L56.5001 30L60.5001 32.3C61.9001 33.1 62.8168 34.3 63.2501 35.9C63.6834 37.5 63.5001 39 62.7001 40.4L60.0001 45.2C61.5334 47.6 62.6834 50.15 63.4501 52.85C64.2168 55.55 64.6001 58.3333 64.6001 61.2C64.6001 69.5333 61.6834 76.6166 55.8501 82.45C50.0168 88.2833 42.9334 91.2 34.6001 91.2C26.2668 91.2 19.1834 88.25 13.3501 82.35C7.51676 76.45 4.6001 69.3333 4.6001 61C4.6001 52.6666 7.48343 45.6166 13.2501 39.85C19.0168 34.0833 26.0668 31.2 34.4001 31.2H35.7001L38.4001 26.5C39.2001 25.0333 40.4001 24.0833 42.0001 23.65C43.6001 23.2166 45.1334 23.4333 46.6001 24.3L49.6001 26L50.1001 25.2C51.6334 22.3333 54.0334 20.4666 57.3001 19.6C60.5668 18.7333 63.6334 19.1333 66.5001 20.8L69.9001 22.7C70.5001 23.0333 71.0001 23.5166 71.4001 24.15C71.8001 24.7833 72.0001 25.4666 72.0001 26.2C72.0001 27.3333 71.6168 28.2833 70.8501 29.05C70.0834 29.8166 69.1334 30.2 68.0001 30.2Z" fill="#757575"/>
</svg>
