<svg width="37" height="36" viewBox="0 0 37 36" fill="none" xmlns="http://www.w3.org/2000/svg">
<path d="M14.135 13.5C14.4877 12.4975 15.1837 11.6522 16.0999 11.1137C17.0161 10.5752 18.0933 10.3784 19.1408 10.5581C20.1882 10.7377 21.1382 11.2823 21.8226 12.0953C22.507 12.9083 22.8816 13.9373 22.88 15C22.88 18 18.38 19.5 18.38 19.5M18.5 25.5H18.515M33.5 18C33.5 26.2843 26.7843 33 18.5 33C10.2157 33 3.5 26.2843 3.5 18C3.5 9.71573 10.2157 3 18.5 3C26.7843 3 33.5 9.71573 33.5 18Z" stroke="#FFEDDF" stroke-width="3" stroke-linecap="round" stroke-linejoin="round"/>
</svg>
