<svg width="56" height="38" viewBox="0 0 56 38" fill="none" xmlns="http://www.w3.org/2000/svg">
<path d="M47.895 3.762C42.7125 1.3015 35.8325 0 28 0C20.1675 0 13.2875 1.3015 8.105 3.762C2.9225 6.2225 0 9.68525 0 13.3V24.7C0 28.3148 2.955 31.7894 8.105 34.238C13.255 36.6866 20.1675 38 28 38C35.8325 38 42.7125 36.6985 47.895 34.238C53.0775 31.7775 56 28.3148 56 24.7V13.3C56 9.68525 53.045 6.21063 47.895 3.762ZM26 26.562V34.162C21.25 34.0147 17.25 33.3498 14 32.3831V24.9494C17.9178 25.941 21.9464 26.484 26 26.5667V26.562ZM30 26.562C34.0536 26.4792 38.0822 25.9362 42 24.9446V32.3807C38.75 33.3474 34.75 34.0124 30 34.1596V26.562ZM4 24.7V20.3134C5.25864 21.3059 6.63656 22.1533 8.105 22.838C8.7125 23.1254 9.355 23.3961 10 23.6526V30.875C6.0425 29.013 4 26.6689 4 24.7ZM46 30.875V23.6526C46.6525 23.3961 47.2875 23.1254 47.895 22.838C49.3634 22.1533 50.7414 21.3059 52 20.3134V24.7C52 26.6689 49.9575 29.013 46 30.875Z" fill="#EE964B"/>
</svg>
