<svg width="30" height="23" viewBox="0 0 30 23" fill="none" xmlns="http://www.w3.org/2000/svg">
<path d="M25.5692 2.97875C22.816 1.60281 19.161 0.875 15 0.875C10.839 0.875 7.18398 1.60281 4.43078 2.97875C1.67758 4.35469 0.125 6.29109 0.125 8.3125V14.6875C0.125 16.7089 1.69484 18.652 4.43078 20.0212C7.16672 21.3905 10.839 22.125 15 22.125C19.161 22.125 22.816 21.3972 25.5692 20.0212C28.3224 18.6453 29.875 16.7089 29.875 14.6875V8.3125C29.875 6.29109 28.3052 4.34805 25.5692 2.97875ZM13.9375 15.7287V19.9788C11.4141 19.8964 9.28906 19.5245 7.5625 18.984V14.827C9.64385 15.3815 11.784 15.6851 13.9375 15.7314V15.7287ZM16.0625 15.7287C18.216 15.6825 20.3561 15.3788 22.4375 14.8243V18.9827C20.7109 19.5232 18.5859 19.8951 16.0625 19.9774V15.7287ZM2.25 14.6875V12.2345C2.91865 12.7895 3.65067 13.2634 4.43078 13.6463C4.75352 13.807 5.09484 13.9584 5.4375 14.1018V18.1406C3.33508 17.0994 2.25 15.7885 2.25 14.6875ZM24.5625 18.1406V14.1018C24.9091 13.9584 25.2465 13.807 25.5692 13.6463C26.3493 13.2634 27.0813 12.7895 27.75 12.2345V14.6875C27.75 15.7885 26.6649 17.0994 24.5625 18.1406Z" fill="#EE964B"/>
</svg>
