<svg width="36" height="36" viewBox="0 0 36 36" fill="none" xmlns="http://www.w3.org/2000/svg">
<path d="M27 13.5H30C30.7956 13.5 31.5587 13.8161 32.1213 14.3787C32.6839 14.9413 33 15.7044 33 16.5V33L27 27H18C17.2044 27 16.4413 26.6839 15.8787 26.1213C15.3161 25.5587 15 24.7956 15 24V22.5M21 13.5C21 14.2956 20.6839 15.0587 20.1213 15.6213C19.5587 16.1839 18.7956 16.5 18 16.5H9L3 22.5V6C3 4.35 4.35 3 6 3H18C18.7956 3 19.5587 3.31607 20.1213 3.87868C20.6839 4.44129 21 5.20435 21 6V13.5Z" stroke="#FFEDDF" stroke-width="3" stroke-linecap="round" stroke-linejoin="round"/>
</svg>
