<svg width="72" height="73" viewBox="0 0 72 73" fill="none" xmlns="http://www.w3.org/2000/svg">
<path d="M36 66.5C52.5685 66.5 66 53.0685 66 36.5C66 19.9315 52.5685 6.5 36 6.5C19.4315 6.5 6 19.9315 6 36.5C6 53.0685 19.4315 66.5 36 66.5Z" fill="#C33432"/>
<path d="M24 42.5C24 42.5 28.5 48.5 36 48.5C43.5 48.5 48 42.5 48 42.5" fill="#C33432"/>
<path d="M24 42.5C24 42.5 28.5 48.5 36 48.5C43.5 48.5 48 42.5 48 42.5M27 27.5H27.03M45 27.5H45.03M66 36.5C66 53.0685 52.5685 66.5 36 66.5C19.4315 66.5 6 53.0685 6 36.5C6 19.9315 19.4315 6.5 36 6.5C52.5685 6.5 66 19.9315 66 36.5Z" stroke="#252525" stroke-width="6" stroke-linecap="round" stroke-linejoin="round"/>
</svg>
