<svg width="34" height="34" viewBox="0 0 34 34" fill="none" xmlns="http://www.w3.org/2000/svg">
<path d="M29.7499 11.6876V22.3126C29.7499 22.8762 29.526 23.4167 29.1275 23.8152C28.7289 24.2137 28.1884 24.4376 27.6249 24.4376H16.9999V29.7501C17 29.9604 16.9378 30.166 16.8211 30.3408C16.7043 30.5157 16.5383 30.652 16.3441 30.7325C16.1498 30.813 15.9361 30.834 15.7298 30.793C15.5236 30.7519 15.3342 30.6506 15.1856 30.5018L2.43564 17.7518C2.33685 17.6531 2.25848 17.536 2.20501 17.407C2.15154 17.278 2.12402 17.1397 2.12402 17.0001C2.12402 16.8605 2.15154 16.7222 2.20501 16.5932C2.25848 16.4642 2.33685 16.3471 2.43564 16.2484L15.1856 3.49839C15.3342 3.34962 15.5236 3.2483 15.7298 3.20723C15.9361 3.16616 16.1498 3.18721 16.3441 3.26769C16.5383 3.34818 16.7043 3.48449 16.8211 3.65937C16.9378 3.83425 17 4.03984 16.9999 4.2501V9.5626H27.6249C28.1884 9.5626 28.7289 9.78649 29.1275 10.185C29.526 10.5835 29.7499 11.124 29.7499 11.6876Z" fill="#FFEDDF"/>
</svg>
