<svg width="36" height="36" viewBox="0 0 36 36" fill="none" xmlns="http://www.w3.org/2000/svg">
<path d="M13.635 13.5C13.9877 12.4975 14.6837 11.6522 15.5999 11.1137C16.5161 10.5752 17.5933 10.3784 18.6408 10.5581C19.6882 10.7377 20.6382 11.2823 21.3226 12.0953C22.007 12.9083 22.3816 13.9373 22.38 15C22.38 18 17.88 19.5 17.88 19.5M18 25.5H18.015M33 18C33 26.2843 26.2843 33 18 33C9.71573 33 3 26.2843 3 18C3 9.71573 9.71573 3 18 3C26.2843 3 33 9.71573 33 18Z" stroke="#FFEDDF" stroke-width="3" stroke-linecap="round" stroke-linejoin="round"/>
</svg>
